<svg xmlns="http://www.w3.org/2000/svg" viewBox="0 0 512 512">
  <defs>
    <linearGradient id="teal" x1="0" y1="0" x2="512" y2="512" gradientUnits="userSpaceOnUse">
      <stop offset="0%" stop-color="#0D6B63"/>
      <stop offset="100%" stop-color="#14B8A6"/>
    </linearGradient>
  </defs>

  <!-- Rounded square background -->
  <rect width="512" height="512" rx="112" fill="url(#teal)"/>

  <!-- White shield — system protection -->
  <path d="M256 100
           C320 100 370 130 378 185
           L378 296
           C378 358 325 398 256 425
           C187 398 134 358 134 296
           L134 185
           C142 130 192 100 256 100Z"
        fill="white"/>

  <!-- Teal sparkle star — cleanliness -->
  <path d="M256 196
           L267 242 L314 258
           L267 274 L256 320
           L245 274 L198 258
           L245 242Z"
        fill="url(#teal)"/>

  <!-- Accent sparkle (upper-right) -->
  <path d="M398 108 L401 96 L404 108 L416 111 L404 114 L401 126 L398 114 L386 111Z"
        fill="white" fill-opacity="0.7"/>

  <!-- Accent sparkle (lower-left) -->
  <path d="M116 390 L118 383 L120 390 L127 392 L120 394 L118 401 L116 394 L109 392Z"
        fill="white" fill-opacity="0.4"/>
</svg>
